<svg width="64" height="64" viewBox="0 0 64 64" fill="none" xmlns="http://www.w3.org/2000/svg">
<path fill-rule="evenodd" clip-rule="evenodd" d="M50.6667 7.99999H39.52C38.4 4.90666 35.4667 2.66666 32 2.66666C28.5333 2.66666 25.6 4.90666 24.48 7.99999H13.3333C10.4 7.99999 8 10.4 8 13.3333V50.6667C8 53.6 10.4 56 13.3333 56H50.6667C53.6 56 56 53.6 56 50.6667V13.3333C56 10.4 53.6 7.99999 50.6667 7.99999ZM32 7.99999C33.4667 7.99999 34.6667 9.19999 34.6667 10.6667C34.6667 12.1333 33.4667 13.3333 32 13.3333C30.5333 13.3333 29.3333 12.1333 29.3333 10.6667C29.3333 9.19999 30.5333 7.99999 32 7.99999ZM18.6667 45.3333H37.3333V40H18.6667V45.3333ZM45.3333 34.6667H18.6667V29.3333H45.3333V34.6667ZM18.6667 24H45.3333V18.6667H18.6667V24Z" fill="black" fill-opacity="0.6"/>
</svg>
