<?xml version="1.0" encoding="UTF-8"?>
<!DOCTYPE svg PUBLIC "-//W3C//DTD SVG 1.1//EN" "http://www.w3.org/Graphics/SVG/1.1/DTD/svg11.dtd">
<!-- Creator: CorelDRAW 2019 (64 Bit) -->
<svg xmlns="http://www.w3.org/2000/svg" xml:space="preserve" width="98.7123mm" height="77.3781mm" version="1.1" style="shape-rendering:geometricPrecision; text-rendering:geometricPrecision; image-rendering:optimizeQuality; fill-rule:evenodd; clip-rule:evenodd"
viewBox="0 0 9873.2 7739.35"
 xmlns:xlink="http://www.w3.org/1999/xlink">
 <defs>
  <style type="text/css">
   <![CDATA[
    .fil1 {fill:#110F8C}
    .fil0 {fill:#110F8C}
   ]]>
  </style>
 </defs>
 <g id="Camada_x0020_1">
  <metadata id="CorelCorpID_0Corel-Layer"/>
  <path class="fil0" d="M5786.18 2867.65c-89.5,-36.08 -182.31,-41.16 -257.97,-17.73 -34.01,-40.1 -77.38,-73.78 -128.64,-98.87 -101.01,-49.43 -214.83,-57.98 -308.65,-27.29 -49.22,-53.96 -115.85,-94.14 -195.14,-114.65 -61.05,-15.78 -121.28,-17.7 -175.24,-7.49l-12.62 -580.22c-2.14,-99.49 -43.82,-187.45 -109.26,-247.84 161.18,-193.19 251.98,-440.33 251.98,-693.32 0,-595.65 -484.6,-1080.25 -1080.25,-1080.25 -120.35,0 -238.67,19.71 -351.65,58.61 -51.28,17.64 -78.57,73.53 -60.91,124.81 17.65,51.28 73.54,78.57 124.82,60.89 92.39,-31.79 189.19,-47.91 287.74,-47.91 487.33,0 883.84,396.49 883.84,883.84 0,226.21 -88.76,446.66 -244.45,610.07 -8.73,-0.71 -17.54,-1.18 -26.47,-1.18 -139.78,0 -259.18,91.44 -304.83,219.28 -98.79,36.81 -202.23,55.67 -308.09,55.67 -487.35,0 -883.86,-396.5 -883.86,-883.85 0,-98.52 16.11,-195.31 47.9,-287.67 17.65,-51.28 -9.63,-107.17 -60.92,-124.81 -51.28,-17.64 -107.17,9.63 -124.79,60.92 -38.88,112.97 -58.59,231.27 -58.59,351.57 0,595.65 484.6,1080.26 1080.27,1080.26 98.16,0 194.67,-13.14 288.27,-39.12l0 1122.38c-94.15,39.72 -170.66,83.63 -234.55,215.86 -64.8,134.12 -123.6,402.85 -65.49,558.54 83.28,223.11 187.68,349.85 271.56,451.68 108.77,132.03 180.65,219.25 182.69,460.86 0.45,53.91 44.27,97.36 98.18,97.36l1427.68 0c54.04,0 97.94,-43.66 98.2,-97.7 0.61,-119.69 56.11,-288.7 109.77,-452.11 58.96,-179.45 119.91,-364.98 119.91,-516.93l0 -664.29c0,-198.11 -104.83,-358.63 -280.44,-429.4l0 0zm84.02 1093.69c0,120.48 -55.97,290.86 -110.08,455.62 -46.29,140.97 -93.85,285.73 -111.94,414.71l-1243.61 0c-22.28,-243.34 -119.98,-361.94 -222.77,-486.72 -82.3,-99.88 -167.37,-203.16 -239.15,-395.48 -32.18,-86.17 5.19,-294.41 58.32,-404.44 18.29,-37.85 35.18,-61.13 57.69,-79.16l0 295.68c0,54.23 43.96,98.21 98.21,98.21 54.22,0 98.18,-43.98 98.18,-98.21l0 -1738.02c0,-76.1 57.53,-138 128.27,-138 69.02,0 126.58,62.85 128.25,140.13l22.65 1041.25c1.16,54.22 46.31,97.52 100.3,96.03 54.22,-1.16 97.22,-46.07 96.06,-100.32l-5.61 -257.59c21.72,-11.78 66.37,-20.06 121.62,-5.77 42.66,11.03 141.9,49.83 141.9,171.5 0,54.25 43.96,98.21 98.21,98.21 54.22,0 98.21,-43.96 98.21,-98.21 0,-22.8 -1.96,-45.09 -5.74,-66.65 41.1,-5.67 90.69,2.11 134.06,23.36 38.88,19 104.08,64.7 104.08,156.98 0,54.22 43.99,98.18 98.21,98.18 54.25,0 98.21,-43.96 98.21,-98.18 0,-17.54 -1.19,-34.8 -3.55,-51.66 27.4,-2.51 63.86,1.4 102.6,17.02 47.32,19.07 157.43,81.37 157.43,247.22l0 664.29 0 0z"/>
  <path class="fil0" d="M6127.3 0c-595.65,0 -1080.25,484.6 -1080.25,1080.26 0,595.65 484.6,1080.25 1080.25,1080.25 595.67,0 1080.27,-484.6 1080.27,-1080.25 0,-595.66 -484.6,-1080.26 -1080.27,-1080.26zm0 1964.09c-487.36,0 -883.84,-396.49 -883.84,-883.84 0,-487.36 396.48,-883.85 883.84,-883.85 487.35,0 883.86,396.49 883.86,883.85 -0.03,487.35 -396.51,883.84 -883.86,883.84z"/>
  <path class="fil0" d="M6543.97 1080.25l69.44 -69.43c114.85,-114.87 114.85,-301.78 0,-416.65 -114.88,-114.87 -301.79,-114.87 -416.67,0l-69.43 69.43 -69.44 -69.43c-114.88,-114.86 -301.77,-114.86 -416.64,0 -114.88,114.86 -114.88,301.77 0,416.65l69.44 69.43 -69.44 69.44c-114.88,114.87 -114.88,301.78 0,416.65 57.42,57.43 132.88,86.15 208.32,86.15 75.45,0 150.89,-28.72 208.32,-86.15l69.44 -69.44 69.43 69.44c114.85,114.86 301.77,114.87 416.64,0 114.88,-114.87 114.88,-301.78 0,-416.65l-69.41 -69.44zm-69.43 347.21c-38.3,38.3 -100.62,38.29 -138.89,0l-138.88 -138.89c-19.18,-19.17 -44.33,-28.76 -69.44,-28.76 -25.14,0 -50.28,9.58 -69.43,28.76l-138.89 138.89c-18.41,18.39 -43.06,28.53 -69.43,28.53 -26.42,0 -51.05,-10.12 -69.44,-28.53 -18.42,-18.4 -28.56,-43.06 -28.56,-69.44 0,-26.39 10.13,-51.05 28.56,-69.44l138.88 -138.88c38.35,-38.35 38.35,-100.53 0,-138.89l-138.88 -138.89c-38.3,-38.29 -38.3,-100.59 0,-138.88 38.27,-38.29 100.59,-38.29 138.88,0l138.89 138.88c38.34,38.35 100.5,38.35 138.88,0l138.88 -138.88c38.3,-38.29 100.59,-38.29 138.89,0 38.29,38.29 38.29,100.6 0,138.88l-138.89 138.89c-38.35,38.35 -38.35,100.53 0,138.89l138.89 138.88c38.26,38.3 38.26,100.6 0,138.89l0 0z"/>
  <path class="fil0" d="M3195.24 1273.87l254.37 254.37c55.62,55.64 129.62,86.28 208.29,86.28 78.71,0 152.67,-30.65 208.32,-86.28l479.36 -479.37c114.85,-114.86 114.85,-301.75 0,-416.61 -55.65,-55.64 -129.62,-86.28 -208.32,-86.28 -78.68,0 -152.66,30.65 -208.29,86.28l-271.06 271.04 -46.05 -46.06c-114.85,-114.85 -301.76,-114.84 -416.61,0 -114.88,114.86 -114.88,301.76 0,416.62l0 0zm138.88 -277.74c19.13,-19.14 44.28,-28.72 69.41,-28.72 25.15,0 50.31,9.57 69.44,28.72l115.48 115.49c38.35,38.35 100.54,38.35 138.89,0l340.5 -340.49c18.53,-18.54 43.19,-28.75 69.41,-28.75 26.24,0 50.89,10.21 69.42,28.75 38.29,38.29 38.29,100.58 0,138.86l-479.37 479.36c-18.52,18.54 -43.19,28.76 -69.41,28.76 -26.23,0 -50.89,-10.21 -69.41,-28.76l-254.37 -254.37c-38.29,-38.29 -38.29,-100.57 0,-138.85l0 0z"/>
  <path class="fil0" d="M3075.91 484.06c26.73,0 53.35,-10.84 72.71,-32.16 36.5,-40.13 33.54,-102.25 -6.58,-138.73 -40.15,-36.49 -102.26,-33.52 -138.73,6.61l-0.05 0.05c-36.5,40.12 -33.51,102.21 6.61,138.69 18.82,17.11 42.45,25.54 66.03,25.54l0 0z"/>
  <path class="fil1" d="M1383.31 7341.13c-55.25,55.26 -120.03,85.75 -184.82,85.75 -47.64,0 -83.84,-13.34 -123.85,-55.26 261.04,-104.79 430.62,-341.06 430.62,-636.4 0,-403.94 -318.19,-697.37 -752.62,-697.37 -434.43,0 -752.63,293.43 -752.63,697.37 0,342.97 230.56,607.82 565.9,678.32 240.08,251.51 386.79,325.83 623.05,325.83 160.05,0 295.34,-59.07 388.69,-169.58l-194.34 -228.65zm-630.68 -939.35c165.76,0 299.14,125.76 299.14,333.44 0,207.69 -133.38,333.45 -299.14,333.45 -165.77,0 -299.15,-125.76 -299.15,-333.45 0,-207.68 133.38,-333.44 299.15,-333.44zm1617.92 -41.92l0 489.68c0,154.34 -72.4,209.59 -146.72,209.59 -83.84,0 -135.28,-49.54 -135.28,-198.16l0 -501.11 -430.62 0 0 575.42c0,339.16 188.61,485.87 438.24,485.87 112.41,0 217.21,-38.11 295.33,-118.13l0 99.08 409.66 0 0 -1042.24 -430.62 0zm1095.04 -19.05c-161.96,0 -346.78,41.92 -468.72,118.13l137.19 283.9c68.59,-51.44 173.38,-81.93 266.75,-81.93 121.94,0 182.92,41.92 196.25,121.94l-173.38 0c-323.91,0 -476.35,112.41 -476.35,314.38 0,179.11 131.47,323.91 386.79,323.91 146.72,0 245.8,-51.44 295.34,-156.24l0 137.19 400.13 0 0 -560.18c0,-346.78 -205.78,-501.11 -563.99,-501.11zm-1.91 821.21c-64.78,0 -102.89,-36.2 -102.89,-83.84 0,-57.16 40.02,-87.65 131.48,-87.65l106.7 0 0 72.4c-22.86,68.59 -76.22,99.08 -135.29,99.08zm758.61 240.08l430.62 0 0 -1413.79 -430.62 0 0 1413.79zm843.42 -1126.07c158.14,0 259.13,-95.27 259.13,-226.75 0,-123.84 -100.99,-211.49 -259.13,-211.49 -158.15,0 -259.13,95.27 -259.13,219.11 0,123.85 100.98,219.12 259.13,219.12zm-215.31 1126.07l430.62 0 0 -1042.24 -430.62 0 0 1042.24zm1996.16 -20.95c-62.88,66.68 -135.29,99.08 -217.21,99.08 -66.69,0 -123.85,-24.77 -188.64,-93.37 283.91,-91.46 476.35,-339.16 476.35,-651.64 0,-398.22 -310.57,-689.75 -729.76,-689.75 -421.09,0 -729.77,293.43 -729.77,689.75 0,362.02 257.23,638.31 623.06,684.04 205.78,217.21 344.87,289.62 543.03,289.62 146.72,0 272.47,-57.16 360.12,-163.86l-137.19 -163.86zm-1076.54 -645.93c0,-253.41 179.11,-426.81 417.28,-426.81 238.17,0 417.27,173.39 417.27,426.81 0,253.42 -179.11,426.81 -417.27,426.81 -238.18,0 -417.28,-173.38 -417.28,-426.81zm2100.15 -358.21l0 506.83c0,188.64 -99.08,276.29 -236.27,276.29 -131.47,0 -207.68,-76.22 -207.68,-247.7l0 -535.42 -297.24 0 0 579.24c0,316.29 181.01,461.1 438.24,461.1 125.76,0 240.08,-47.63 318.19,-137.19l0 121.94 282 0 0 -1025.09 -297.24 0zm727.86 -142.9c110.51,0 184.83,-72.4 184.83,-171.48 0,-91.46 -74.31,-160.05 -184.83,-160.05 -110.51,0 -184.82,72.4 -184.82,165.76 0,93.37 74.3,165.77 184.82,165.77zm-148.62 1167.99l297.24 0 0 -1025.09 -297.24 0 0 1025.09zm884.58 -228.65l522.07 -617.34 0 -179.11 -884.1 0 0 228.65 508.74 0 -522.07 617.34 0 179.11 914.58 0 0 -228.65 -539.23 0z"/>
 </g>
</svg>
