<?xml version="1.0" encoding="utf-8"?>
<svg xmlns="http://www.w3.org/2000/svg" xmlns:xlink="http://www.w3.org/1999/xlink" style="margin: auto; background: none; display: block; shape-rendering: auto;" width="201px" height="201px" viewBox="0 0 100 100" preserveAspectRatio="xMidYMid">
<defs>
  <clipPath id="progress-oozqnpq37t-cp" x="0" y="0" width="100" height="100">
    <rect x="0" y="0" width="0" height="100">
      <animate attributeName="width" repeatCount="indefinite" dur="1.1111111111111112s" values="0;100;100" keyTimes="0;0.5;1"></animate>
      <animate attributeName="x" repeatCount="indefinite" dur="1.1111111111111112s" values="0;0;100" keyTimes="0;0.5;1"></animate>
    </rect>
  </clipPath>
</defs>
<path fill="none" stroke="#61459b" stroke-width="1" d="M7.5 45.5L92.5 45.5A4.5 4.5 0 0 1 97 50L97 50A4.5 4.5 0 0 1 92.5 54.5L7.5 54.5A4.5 4.5 0 0 1 3 50L3 50A4.5 4.5 0 0 1 7.5 45.5 Z"></path>
<path fill="#61459b" clip-path="url(#progress-oozqnpq37t-cp)" d="M7.5 47L92.5 47A3 3 0 0 1 95.5 50L95.5 50A3 3 0 0 1 92.5 53L7.5 53A3 3 0 0 1 4.5 50L4.5 50A3 3 0 0 1 7.5 47 Z"></path>
<!-- [ldio] generated by https://loading.io/ --></svg>