<svg width="202" height="10" viewBox="0 0 202 10" fill="none" xmlns="http://www.w3.org/2000/svg">
<path d="M4.88624 6.01617H1.85255L1.24332 7.78291C1.16872 7.8137 1.08998 7.8368 1.00709 7.85219C0.924201 7.86759 0.824735 7.87529 0.708692 7.87529C0.501472 7.87529 0.331552 7.83295 0.198931 7.74827C0.0663104 7.66359 0 7.53657 0 7.36721C0 7.28253 0.0124332 7.20169 0.0372996 7.12471C0.0621659 7.04003 0.0953211 6.94765 0.136765 6.84758C0.244519 6.52425 0.393718 6.10854 0.58436 5.60046C0.783291 5.08468 0.990511 4.54196 1.20602 3.97229C1.42982 3.40262 1.65361 2.8445 1.87741 2.29792C2.10121 1.74365 2.296 1.27021 2.46177 0.877599C2.54466 0.831409 2.67314 0.789069 2.8472 0.750578C3.02127 0.704388 3.19947 0.681293 3.38183 0.681293C3.6222 0.681293 3.83771 0.712087 4.02835 0.773673C4.219 0.835258 4.34747 0.943033 4.41378 1.097C4.59614 1.5358 4.79507 2.03618 5.01058 2.59815C5.22608 3.15243 5.44159 3.72594 5.6571 4.31871C5.87261 4.91147 6.07983 5.49269 6.27876 6.06236C6.47769 6.63202 6.6559 7.14781 6.81339 7.6097C6.73879 7.68668 6.63932 7.74827 6.51499 7.79446C6.39895 7.84835 6.25804 7.87529 6.09226 7.87529C5.86847 7.87529 5.70683 7.8368 5.60737 7.75982C5.5079 7.67513 5.42502 7.53657 5.35871 7.34411L4.88624 6.01617ZM3.36939 1.7552C3.28651 1.96305 3.19533 2.19784 3.09586 2.45958C2.9964 2.72132 2.89279 2.99846 2.78503 3.29099C2.67728 3.57583 2.56953 3.86836 2.46177 4.16859C2.35402 4.46112 2.25041 4.74596 2.15094 5.0231H4.60028C4.49253 4.71517 4.38063 4.40724 4.26458 4.09931C4.15683 3.78368 4.04908 3.48345 3.94132 3.19861C3.84186 2.91378 3.74654 2.64819 3.65536 2.40185C3.56418 2.14781 3.48958 1.93226 3.43156 1.7552H3.36939Z" fill="white"/>
<path d="M12.0756 2.25173C12.258 2.25173 12.4072 2.29407 12.5232 2.37875C12.6393 2.45574 12.6973 2.58276 12.6973 2.75982C12.6973 2.85219 12.6641 3.01001 12.5978 3.23326C12.5398 3.44881 12.4569 3.70285 12.3492 3.99538C12.2414 4.28791 12.1212 4.60354 11.9886 4.94226C11.856 5.28099 11.7151 5.61971 11.5659 5.95843C11.4167 6.28945 11.2675 6.60893 11.1183 6.91686C10.9774 7.21709 10.8448 7.47498 10.7204 7.69053C10.6541 7.72902 10.5546 7.76367 10.422 7.79446C10.2894 7.83295 10.1402 7.85219 9.97443 7.85219C9.56828 7.85219 9.30304 7.74827 9.17871 7.54042C9.06266 7.34796 8.90932 7.04773 8.71868 6.63972C8.52804 6.22402 8.33325 5.77367 8.13432 5.28868C7.93539 4.796 7.7406 4.30716 7.54996 3.82217C7.3676 3.32948 7.22255 2.90608 7.1148 2.55196C7.1894 2.46728 7.28886 2.398 7.41319 2.34411C7.53752 2.28253 7.67015 2.25173 7.81105 2.25173C8.0017 2.25173 8.1509 2.29407 8.25865 2.37875C8.37469 2.45574 8.46587 2.5943 8.53218 2.79446L9.21601 4.7806C9.26574 4.92687 9.32376 5.08853 9.39007 5.26559C9.45638 5.44265 9.52269 5.62356 9.589 5.80831C9.65531 5.98537 9.72162 6.15858 9.78793 6.32794C9.85424 6.48961 9.90812 6.62818 9.94956 6.74365H10.0117C10.2935 6.02002 10.5629 5.29253 10.8199 4.5612C11.0768 3.82217 11.3006 3.09469 11.4913 2.37875C11.6488 2.29407 11.8436 2.25173 12.0756 2.25173Z" fill="white"/>
<path d="M16.0418 6.99769C16.3319 6.99769 16.5847 6.97075 16.8003 6.91686C17.0158 6.86297 17.1691 6.80523 17.2603 6.74365V5.27714L15.9051 5.40416C15.5238 5.44265 15.2378 5.52348 15.0472 5.64665C14.8565 5.76212 14.7612 5.94303 14.7612 6.18938C14.7612 6.44342 14.8648 6.64357 15.072 6.78984C15.2793 6.92841 15.6025 6.99769 16.0418 6.99769ZM16.017 2.20554C16.7878 2.20554 17.4012 2.36336 17.8571 2.67898C18.313 2.98691 18.5409 3.47575 18.5409 4.1455V6.83603C18.5409 7.01309 18.4953 7.15166 18.4041 7.25173C18.3212 7.34411 18.2052 7.43264 18.056 7.51732C17.8405 7.63279 17.5628 7.73287 17.223 7.81755C16.8831 7.90223 16.4894 7.94457 16.0418 7.94457C15.2378 7.94457 14.6079 7.79831 14.152 7.50577C13.7044 7.21324 13.4806 6.78214 13.4806 6.21247C13.4806 5.70439 13.6547 5.31563 14.0028 5.04619C14.3592 4.77675 14.869 4.61124 15.5321 4.54965L17.2603 4.38799V4.13395C17.2603 3.79523 17.1401 3.54888 16.8997 3.39492C16.6676 3.24095 16.3402 3.16397 15.9175 3.16397C15.5859 3.16397 15.2668 3.20631 14.9601 3.29099C14.6535 3.37567 14.3799 3.4719 14.1395 3.57968C14.0567 3.51809 13.9862 3.44496 13.9282 3.36028C13.8702 3.2679 13.8412 3.16782 13.8412 3.06005C13.8412 2.92918 13.8743 2.8214 13.9406 2.73672C14.0152 2.65204 14.1271 2.57891 14.2763 2.51732C14.5084 2.40955 14.7736 2.33256 15.072 2.28637C15.3704 2.23249 15.6854 2.20554 16.017 2.20554Z" fill="white"/>
<path d="M20.9995 7.84065C20.7591 7.84065 20.5809 7.79831 20.4648 7.71363C20.3488 7.62894 20.2908 7.48653 20.2908 7.28637V0.277136C20.3488 0.26174 20.4317 0.242494 20.5394 0.219399C20.6472 0.196305 20.7632 0.184758 20.8876 0.184758C21.1279 0.184758 21.3062 0.227098 21.4222 0.311779C21.5382 0.396459 21.5963 0.538876 21.5963 0.73903V7.74827C21.5299 7.77136 21.4429 7.79061 21.3352 7.806C21.2357 7.8291 21.1238 7.84065 20.9995 7.84065Z" fill="white"/>
<path d="M24.7522 7.74827C24.6942 7.77136 24.6113 7.79061 24.5036 7.806C24.4041 7.8291 24.2881 7.84065 24.1555 7.84065C23.9151 7.84065 23.7369 7.79831 23.6208 7.71363C23.5048 7.62894 23.4468 7.48653 23.4468 7.28637V2.40185C23.5131 2.38645 23.596 2.36721 23.6954 2.34411C23.8032 2.32102 23.9234 2.30947 24.056 2.30947C24.2964 2.30947 24.4704 2.35181 24.5782 2.43649C24.6942 2.52117 24.7522 2.66744 24.7522 2.87529V7.74827ZM23.31 0.704388C23.31 0.504234 23.3846 0.338722 23.5338 0.207852C23.683 0.0692843 23.8736 0 24.1057 0C24.3378 0 24.5243 0.0692843 24.6652 0.207852C24.8061 0.338722 24.8766 0.504234 24.8766 0.704388C24.8766 0.904542 24.8061 1.0739 24.6652 1.21247C24.5243 1.34334 24.3378 1.40878 24.1057 1.40878C23.8736 1.40878 23.683 1.34334 23.5338 1.21247C23.3846 1.0739 23.31 0.904542 23.31 0.704388Z" fill="white"/>
<path d="M28.7179 6.99769C29.008 6.99769 29.2608 6.97075 29.4763 6.91686C29.6918 6.86297 29.8451 6.80523 29.9363 6.74365V5.27714L28.5811 5.40416C28.1998 5.44265 27.9138 5.52348 27.7232 5.64665C27.5326 5.76212 27.4372 5.94303 27.4372 6.18938C27.4372 6.44342 27.5408 6.64357 27.7481 6.78984C27.9553 6.92841 28.2785 6.99769 28.7179 6.99769ZM28.693 2.20554C29.4638 2.20554 30.0772 2.36336 30.5331 2.67898C30.989 2.98691 31.2169 3.47575 31.2169 4.1455V6.83603C31.2169 7.01309 31.1713 7.15166 31.0802 7.25173C30.9973 7.34411 30.8812 7.43264 30.732 7.51732C30.5165 7.63279 30.2388 7.73287 29.899 7.81755C29.5592 7.90223 29.1654 7.94457 28.7179 7.94457C27.9138 7.94457 27.2839 7.79831 26.828 7.50577C26.3804 7.21324 26.1566 6.78214 26.1566 6.21247C26.1566 5.70439 26.3307 5.31563 26.6788 5.04619C27.0352 4.77675 27.545 4.61124 28.2081 4.54965L29.9363 4.38799V4.13395C29.9363 3.79523 29.8161 3.54888 29.5757 3.39492C29.3437 3.24095 29.0162 3.16397 28.5935 3.16397C28.262 3.16397 27.9428 3.20631 27.6362 3.29099C27.3295 3.37567 27.056 3.4719 26.8156 3.57968C26.7327 3.51809 26.6622 3.44496 26.6042 3.36028C26.5462 3.2679 26.5172 3.16782 26.5172 3.06005C26.5172 2.92918 26.5503 2.8214 26.6166 2.73672C26.6912 2.65204 26.8031 2.57891 26.9523 2.51732C27.1844 2.40955 27.4497 2.33256 27.7481 2.28637C28.0465 2.23249 28.3614 2.20554 28.693 2.20554Z" fill="white"/>
<path d="M35.7394 3.18707C35.4742 3.18707 35.2296 3.22941 35.0058 3.31409C34.782 3.39107 34.5873 3.51039 34.4215 3.67206C34.264 3.83372 34.1355 4.03387 34.0361 4.27252C33.9449 4.50346 33.8993 4.7729 33.8993 5.08083C33.8993 5.68899 34.0692 6.15473 34.409 6.47806C34.7489 6.79369 35.1923 6.9515 35.7394 6.9515C36.0544 6.9515 36.3238 6.91301 36.5476 6.83603C36.7714 6.75905 36.9661 6.66667 37.1319 6.55889C37.2397 6.62048 37.3267 6.69361 37.393 6.77829C37.4593 6.86297 37.4925 6.9669 37.4925 7.09007C37.4925 7.28253 37.3764 7.45189 37.1443 7.59815C36.9206 7.74442 36.618 7.8445 36.2367 7.89838C36.4191 8.13703 36.5103 8.42186 36.5103 8.75289C36.5103 9.1301 36.3818 9.43033 36.1248 9.65358C35.8762 9.88453 35.5405 10 35.1177 10C34.8774 10 34.6867 9.94996 34.5458 9.84988C34.4049 9.75751 34.3344 9.62279 34.3344 9.44573C34.3344 9.39954 34.3386 9.3495 34.3469 9.29561C34.3552 9.24172 34.3717 9.19169 34.3966 9.1455H34.5707C34.8608 9.1455 35.068 9.08776 35.1923 8.97229C35.325 8.85681 35.3913 8.699 35.3913 8.49885C35.3913 8.41416 35.3747 8.31794 35.3415 8.21016C35.3084 8.11009 35.2586 8.01001 35.1923 7.90993C34.8028 7.87144 34.4463 7.78676 34.1231 7.65589C33.7998 7.51732 33.5221 7.33256 33.2901 7.10162C33.058 6.86297 32.8798 6.57814 32.7554 6.24711C32.6311 5.90839 32.5689 5.51963 32.5689 5.08083C32.5689 4.60354 32.6477 4.18399 32.8052 3.82217C32.9709 3.46035 33.1906 3.16012 33.4641 2.92148C33.7459 2.68283 34.0733 2.50577 34.4463 2.3903C34.8193 2.26713 35.2131 2.20554 35.6275 2.20554C35.901 2.20554 36.1455 2.22864 36.3611 2.27483C36.5849 2.32102 36.7755 2.38645 36.933 2.47113C37.0905 2.54811 37.2107 2.64049 37.2935 2.74827C37.3847 2.84834 37.4303 2.95612 37.4303 3.07159C37.4303 3.17937 37.3972 3.27945 37.3308 3.37182C37.2728 3.45651 37.1982 3.52194 37.1071 3.56813C36.933 3.46805 36.7382 3.37952 36.5227 3.30254C36.3155 3.22556 36.0544 3.18707 35.7394 3.18707Z" fill="white"/>
<path d="M41.0903 6.99769C41.3804 6.99769 41.6332 6.97075 41.8488 6.91686C42.0643 6.86297 42.2176 6.80523 42.3088 6.74365V5.27714L40.9536 5.40416C40.5723 5.44265 40.2863 5.52348 40.0957 5.64665C39.905 5.76212 39.8097 5.94303 39.8097 6.18938C39.8097 6.44342 39.9133 6.64357 40.1205 6.78984C40.3278 6.92841 40.651 6.99769 41.0903 6.99769ZM41.0655 2.20554C41.8363 2.20554 42.4497 2.36336 42.9056 2.67898C43.3615 2.98691 43.5894 3.47575 43.5894 4.1455V6.83603C43.5894 7.01309 43.5438 7.15166 43.4526 7.25173C43.3698 7.34411 43.2537 7.43264 43.1045 7.51732C42.889 7.63279 42.6113 7.73287 42.2715 7.81755C41.9316 7.90223 41.5379 7.94457 41.0903 7.94457C40.2863 7.94457 39.6564 7.79831 39.2005 7.50577C38.7529 7.21324 38.5291 6.78214 38.5291 6.21247C38.5291 5.70439 38.7032 5.31563 39.0513 5.04619C39.4077 4.77675 39.9175 4.61124 40.5806 4.54965L42.3088 4.38799V4.13395C42.3088 3.79523 42.1886 3.54888 41.9482 3.39492C41.7161 3.24095 41.3887 3.16397 40.966 3.16397C40.6344 3.16397 40.3153 3.20631 40.0086 3.29099C39.702 3.37567 39.4284 3.4719 39.1881 3.57968C39.1052 3.51809 39.0347 3.44496 38.9767 3.36028C38.9187 3.2679 38.8897 3.16782 38.8897 3.06005C38.8897 2.92918 38.9228 2.8214 38.9891 2.73672C39.0637 2.65204 39.1756 2.57891 39.3248 2.51732C39.5569 2.40955 39.8221 2.33256 40.1205 2.28637C40.4189 2.23249 40.7339 2.20554 41.0655 2.20554ZM40.1827 0.0461897C40.3568 0.0461897 40.5184 0.0654353 40.6676 0.103926C40.8168 0.142418 40.9577 0.188607 41.0903 0.242494C41.2312 0.288684 41.3597 0.331024 41.4758 0.369515C41.6001 0.408006 41.7161 0.427252 41.8239 0.427252C41.9814 0.427252 42.0974 0.384912 42.172 0.300231C42.2549 0.207852 42.3129 0.107775 42.3461 0H42.4207C42.603 0 42.7605 0.0461895 42.8931 0.138568C43.0258 0.230947 43.0921 0.373364 43.0921 0.56582C43.0921 0.819862 43.0009 1.01617 42.8185 1.15473C42.6362 1.2933 42.4 1.36259 42.1099 1.36259C41.9275 1.36259 41.7534 1.34334 41.5877 1.30485C41.4302 1.26636 41.281 1.22402 41.1401 1.17783C41.0074 1.12394 40.879 1.07775 40.7546 1.03926C40.6386 1.00077 40.5308 0.981525 40.4314 0.981525C40.2739 0.981525 40.1578 1.02771 40.0832 1.12009C40.0086 1.20477 39.9548 1.30485 39.9216 1.42032H39.847C39.6647 1.42032 39.503 1.37413 39.3621 1.28176C39.2295 1.18168 39.1632 1.03541 39.1632 0.842956C39.1632 0.588915 39.2668 0.39261 39.474 0.254042C39.6812 0.115474 39.9175 0.0461897 40.1827 0.0461897Z" fill="white"/>
<path d="M50.8348 5.06928C50.8348 5.50808 50.7643 5.90454 50.6234 6.25866C50.4825 6.61278 50.2836 6.91301 50.0266 7.15935C49.7779 7.4057 49.4712 7.59815 49.1065 7.73672C48.7418 7.86759 48.3357 7.93303 47.8881 7.93303C47.4405 7.93303 47.0343 7.86759 46.6696 7.73672C46.3049 7.59815 45.9941 7.4057 45.7371 7.15935C45.4885 6.91301 45.2937 6.61278 45.1528 6.25866C45.0119 5.90454 44.9414 5.50808 44.9414 5.06928C44.9414 4.63049 45.0119 4.23403 45.1528 3.87991C45.2937 3.52579 45.4926 3.22556 45.7496 2.97921C46.0065 2.73287 46.3174 2.54427 46.6821 2.4134C47.0468 2.27483 47.4488 2.20554 47.8881 2.20554C48.3274 2.20554 48.7294 2.27483 49.0941 2.4134C49.4588 2.54427 49.7696 2.73672 50.0266 2.99076C50.2836 3.23711 50.4825 3.53734 50.6234 3.89145C50.7643 4.23788 50.8348 4.63049 50.8348 5.06928ZM47.8881 3.17552C47.3908 3.17552 46.997 3.34103 46.7069 3.67206C46.4168 4.00308 46.2718 4.46882 46.2718 5.06928C46.2718 5.66975 46.4127 6.13549 46.6945 6.46651C46.9763 6.78984 47.3742 6.9515 47.8881 6.9515C48.402 6.9515 48.7999 6.78984 49.0817 6.46651C49.3635 6.13549 49.5044 5.66975 49.5044 5.06928C49.5044 4.47652 49.3593 4.01463 49.0692 3.6836C48.7874 3.34488 48.3937 3.17552 47.8881 3.17552Z" fill="white"/>
<path d="M54.4244 4.51501C54.4244 4.22248 54.5281 3.97229 54.7353 3.76443C54.9508 3.54888 55.2326 3.44111 55.5807 3.44111C55.9289 3.44111 56.2065 3.54888 56.4138 3.76443C56.6293 3.97229 56.737 4.22248 56.737 4.51501C56.737 4.80754 56.6293 5.05774 56.4138 5.26559C56.2065 5.47344 55.9289 5.57737 55.5807 5.57737C55.2326 5.57737 54.9508 5.47344 54.7353 5.26559C54.5281 5.05774 54.4244 4.80754 54.4244 4.51501Z" fill="white"/>
<path d="M66.454 1.59353C66.454 1.7244 66.4126 1.83988 66.3297 1.93995C66.2551 2.04003 66.1639 2.11316 66.0562 2.15935C65.8407 2.02848 65.592 1.90531 65.3102 1.78984C65.0367 1.67437 64.6885 1.61663 64.2658 1.61663C63.9011 1.61663 63.5654 1.67437 63.2587 1.78984C62.9603 1.90531 62.6992 2.07467 62.4754 2.29792C62.2599 2.52117 62.09 2.79831 61.9657 3.12933C61.8413 3.46035 61.7792 3.84142 61.7792 4.27252C61.7792 5.14242 62.0112 5.80062 62.4754 6.24711C62.9396 6.69361 63.553 6.91686 64.3155 6.91686C64.7217 6.91686 65.074 6.86297 65.3724 6.7552C65.6708 6.64742 65.9277 6.52425 66.1432 6.38568C66.2344 6.43957 66.3173 6.51655 66.3919 6.61663C66.4748 6.71671 66.5162 6.83218 66.5162 6.96305C66.5162 7.07082 66.4831 7.1709 66.4167 7.26328C66.3587 7.35566 66.2593 7.44034 66.1183 7.51732C65.936 7.6251 65.6873 7.72132 65.3724 7.806C65.0574 7.89069 64.6595 7.93303 64.1788 7.93303C63.6483 7.93303 63.1551 7.85989 62.6992 7.71363C62.2433 7.55966 61.8455 7.33256 61.5056 7.03233C61.1658 6.7244 60.8964 6.34334 60.6975 5.88915C60.5068 5.42725 60.4115 4.88838 60.4115 4.27252C60.4115 3.67206 60.511 3.14088 60.7099 2.67898C60.9088 2.21709 61.1741 1.83218 61.5056 1.52425C61.8455 1.21632 62.2392 0.985374 62.6868 0.831409C63.1344 0.669746 63.611 0.588915 64.1166 0.588915C64.473 0.588915 64.7921 0.619707 65.074 0.681293C65.3641 0.735181 65.6086 0.808314 65.8075 0.900693C66.0147 0.993072 66.1722 1.10085 66.28 1.22402C66.396 1.34719 66.454 1.47036 66.454 1.59353Z" fill="white"/>
<path d="M68.6367 5.68129C68.7527 6.12009 68.9765 6.44727 69.308 6.66282C69.6479 6.87067 70.0789 6.9746 70.6011 6.9746C70.9492 6.9746 71.2683 6.92456 71.5584 6.82448C71.8486 6.7244 72.0806 6.61663 72.2547 6.50115C72.4868 6.62433 72.6028 6.79754 72.6028 7.02079C72.6028 7.15166 72.549 7.27483 72.4412 7.3903C72.3335 7.49808 72.1843 7.5943 71.9936 7.67898C71.8113 7.75597 71.5916 7.81755 71.3347 7.86374C71.086 7.90993 70.8166 7.93303 70.5265 7.93303C70.0457 7.93303 69.6064 7.87144 69.2086 7.74827C68.819 7.6251 68.4833 7.44034 68.2015 7.19399C67.9197 6.94765 67.7 6.64357 67.5425 6.28176C67.3933 5.91994 67.3187 5.50038 67.3187 5.0231C67.3187 4.5612 67.3933 4.15704 67.5425 3.81062C67.6917 3.45651 67.8948 3.16397 68.1518 2.93303C68.4087 2.69438 68.7113 2.51347 69.0594 2.3903C69.4075 2.26713 69.7805 2.20554 70.1784 2.20554C70.5762 2.20554 70.9368 2.26713 71.2601 2.3903C71.5916 2.50577 71.8734 2.67129 72.1055 2.88684C72.3459 3.09469 72.5282 3.34488 72.6526 3.63741C72.7852 3.92995 72.8515 4.24942 72.8515 4.59584C72.8515 4.7883 72.8018 4.93072 72.7023 5.0231C72.6028 5.10778 72.4578 5.16551 72.2671 5.19631L68.6367 5.68129ZM70.1784 3.14088C69.7225 3.14088 69.3412 3.28329 69.0345 3.56813C68.7361 3.85296 68.5786 4.26097 68.562 4.79215L71.6206 4.38799C71.5875 4.04157 71.4507 3.74904 71.2103 3.51039C70.9699 3.26405 70.626 3.14088 70.1784 3.14088Z" fill="white"/>
<path d="M75.4792 7.74827C75.4212 7.77136 75.3383 7.79061 75.2305 7.806C75.1311 7.8291 75.0192 7.84065 74.8948 7.84065C74.6544 7.84065 74.4762 7.79831 74.3602 7.71363C74.2441 7.62894 74.1861 7.48653 74.1861 7.28637V3.49885C74.1861 3.30639 74.2276 3.15243 74.3105 3.03695C74.3933 2.91378 74.526 2.79831 74.7083 2.69053C74.9487 2.55196 75.2554 2.43649 75.6284 2.34411C76.0014 2.25173 76.4117 2.20554 76.8593 2.20554C77.5887 2.20554 77.9534 2.398 77.9534 2.78291C77.9534 2.87529 77.9368 2.96382 77.9036 3.0485C77.8705 3.12548 77.8332 3.19477 77.7918 3.25635C77.7089 3.24095 77.6053 3.22556 77.4809 3.21016C77.3566 3.19477 77.224 3.18707 77.0831 3.18707C76.7515 3.18707 76.449 3.22171 76.1754 3.29099C75.9019 3.35258 75.6698 3.43341 75.4792 3.53349V7.74827Z" fill="white"/>
<path d="M80.3362 6.18938C80.3362 6.46651 80.4232 6.66282 80.5973 6.77829C80.7713 6.89376 81.0159 6.9515 81.3308 6.9515C81.4718 6.9515 81.6209 6.93226 81.7784 6.89376C81.9359 6.85527 82.0727 6.80908 82.1887 6.7552C82.2467 6.81678 82.2965 6.88607 82.3379 6.96305C82.3877 7.04003 82.4125 7.13241 82.4125 7.24018C82.4125 7.44034 82.3006 7.60585 82.0768 7.73672C81.8613 7.86759 81.5298 7.93303 81.0822 7.93303C80.4605 7.93303 79.9632 7.80601 79.5902 7.55196C79.2255 7.29022 79.0431 6.86297 79.0431 6.27021V0.877599C79.1012 0.862202 79.184 0.842956 79.2918 0.819861C79.3996 0.796767 79.5156 0.78522 79.6399 0.78522C79.8803 0.78522 80.0544 0.82756 80.1621 0.91224C80.2782 0.996921 80.3362 1.13934 80.3362 1.33949V2.48268H82.2633C82.2965 2.52887 82.3255 2.5943 82.3504 2.67898C82.3835 2.76366 82.4001 2.85219 82.4001 2.94457C82.4001 3.2756 82.2467 3.44111 81.9401 3.44111H80.3362V6.18938Z" fill="white"/>
<path d="M85.0969 7.74827C85.0389 7.77136 84.956 7.79061 84.8483 7.806C84.7488 7.8291 84.6328 7.84065 84.5001 7.84065C84.2598 7.84065 84.0816 7.79831 83.9655 7.71363C83.8495 7.62894 83.7915 7.48653 83.7915 7.28637V2.40185C83.8578 2.38645 83.9406 2.36721 84.0401 2.34411C84.1479 2.32102 84.2681 2.30947 84.4007 2.30947C84.6411 2.30947 84.8151 2.35181 84.9229 2.43649C85.0389 2.52117 85.0969 2.66744 85.0969 2.87529V7.74827ZM83.6547 0.704388C83.6547 0.504234 83.7293 0.338722 83.8785 0.207852C84.0277 0.0692843 84.2183 0 84.4504 0C84.6825 0 84.869 0.0692843 85.0099 0.207852C85.1508 0.338722 85.2213 0.504234 85.2213 0.704388C85.2213 0.904542 85.1508 1.0739 85.0099 1.21247C84.869 1.34334 84.6825 1.40878 84.4504 1.40878C84.2183 1.40878 84.0277 1.34334 83.8785 1.21247C83.7293 1.0739 83.6547 0.904542 83.6547 0.704388Z" fill="white"/>
<path d="M88.1549 2.70208H90.5048C90.5379 2.74827 90.567 2.8137 90.5918 2.89838C90.625 2.97537 90.6416 3.06774 90.6416 3.17552C90.6416 3.49885 90.4841 3.66051 90.1691 3.66051H88.1922V7.74827C88.1342 7.77136 88.0513 7.79061 87.9436 7.806C87.8441 7.8291 87.7322 7.84065 87.6079 7.84065C87.3675 7.84065 87.1893 7.79831 87.0732 7.71363C86.9572 7.62894 86.8992 7.48653 86.8992 7.28637V2.02079C86.8992 1.66667 86.953 1.36259 87.0608 1.10855C87.1768 0.854504 87.3385 0.646651 87.5457 0.484988C87.7529 0.323326 88.0016 0.204003 88.2917 0.127021C88.5901 0.0500385 88.9175 0.0115473 89.2739 0.0115473C89.7878 0.0115473 90.1815 0.0731332 90.4551 0.196305C90.7286 0.319477 90.8653 0.492687 90.8653 0.715936C90.8653 0.823711 90.8405 0.919939 90.7907 1.00462C90.7493 1.0816 90.6954 1.15089 90.6291 1.21247C90.4716 1.15089 90.2893 1.097 90.0821 1.05081C89.8748 1.00462 89.6635 0.981525 89.448 0.981525C88.9838 0.981525 88.6522 1.06621 88.4533 1.23557C88.2544 1.40493 88.1549 1.68206 88.1549 2.06698V2.70208ZM93.2898 7.74827C93.2318 7.77136 93.1489 7.79061 93.0412 7.806C92.9417 7.8291 92.8256 7.84065 92.693 7.84065C92.4527 7.84065 92.2744 7.79831 92.1584 7.71363C92.0424 7.62894 91.9843 7.48653 91.9843 7.28637V2.40185C92.0506 2.38645 92.1335 2.36721 92.233 2.34411C92.3408 2.32102 92.4609 2.30947 92.5936 2.30947C92.8339 2.30947 93.008 2.35181 93.1158 2.43649C93.2318 2.52117 93.2898 2.66744 93.2898 2.87529V7.74827ZM91.8476 0.704388C91.8476 0.504234 91.9222 0.338722 92.0714 0.207852C92.2206 0.0692843 92.4112 0 92.6433 0C92.8754 0 93.0619 0.0692843 93.2028 0.207852C93.3437 0.338722 93.4142 0.504234 93.4142 0.704388C93.4142 0.904542 93.3437 1.0739 93.2028 1.21247C93.0619 1.34334 92.8754 1.40878 92.6433 1.40878C92.4112 1.40878 92.2206 1.34334 92.0714 1.21247C91.9222 1.0739 91.8476 0.904542 91.8476 0.704388Z" fill="white"/>
<path d="M97.9296 3.18707C97.6644 3.18707 97.4199 3.22941 97.1961 3.31409C96.9723 3.39107 96.7775 3.51039 96.6117 3.67206C96.4542 3.83372 96.3258 4.03387 96.2263 4.27252C96.1351 4.50346 96.0895 4.7729 96.0895 5.08083C96.0895 5.68899 96.2594 6.15473 96.5993 6.47806C96.9391 6.79369 97.3826 6.9515 97.9296 6.9515C98.2446 6.9515 98.514 6.91301 98.7378 6.83603C98.9616 6.75905 99.1564 6.66667 99.3221 6.55889C99.4299 6.62048 99.5169 6.69361 99.5833 6.77829C99.6496 6.86297 99.6827 6.9669 99.6827 7.09007C99.6827 7.32871 99.5128 7.52887 99.173 7.69053C98.8414 7.85219 98.4021 7.93303 97.855 7.93303C97.3991 7.93303 96.9806 7.87529 96.5993 7.75982C96.2263 7.64434 95.903 7.46728 95.6295 7.22864C95.356 6.98999 95.1405 6.69361 94.983 6.33949C94.8338 5.97767 94.7592 5.55812 94.7592 5.08083C94.7592 4.60354 94.8379 4.18399 94.9954 3.82217C95.1612 3.46035 95.3808 3.16012 95.6544 2.92148C95.9362 2.68283 96.2636 2.50577 96.6366 2.3903C97.0096 2.26713 97.4033 2.20554 97.8177 2.20554C98.0913 2.20554 98.3358 2.22864 98.5513 2.27483C98.7751 2.32102 98.9657 2.38645 99.1232 2.47113C99.2807 2.54811 99.4009 2.64049 99.4838 2.74827C99.575 2.84834 99.6206 2.95612 99.6206 3.07159C99.6206 3.17937 99.5874 3.27945 99.5211 3.37182C99.4631 3.45651 99.3885 3.52194 99.2973 3.56813C99.1232 3.46805 98.9284 3.37952 98.7129 3.30254C98.5057 3.22556 98.2446 3.18707 97.9296 3.18707Z" fill="white"/>
<path d="M103.281 6.99769C103.571 6.99769 103.823 6.97075 104.039 6.91686C104.254 6.86297 104.408 6.80523 104.499 6.74365V5.27714L103.144 5.40416C102.763 5.44265 102.477 5.52348 102.286 5.64665C102.095 5.76212 102 5.94303 102 6.18938C102 6.44342 102.104 6.64357 102.311 6.78984C102.518 6.92841 102.841 6.99769 103.281 6.99769ZM103.256 2.20554C104.027 2.20554 104.64 2.36336 105.096 2.67898C105.552 2.98691 105.78 3.47575 105.78 4.1455V6.83603C105.78 7.01309 105.734 7.15166 105.643 7.25173C105.56 7.34411 105.444 7.43264 105.295 7.51732C105.079 7.63279 104.802 7.73287 104.462 7.81755C104.122 7.90223 103.728 7.94457 103.281 7.94457C102.477 7.94457 101.847 7.79831 101.391 7.50577C100.943 7.21324 100.719 6.78214 100.719 6.21247C100.719 5.70439 100.893 5.31563 101.242 5.04619C101.598 4.77675 102.108 4.61124 102.771 4.54965L104.499 4.38799V4.13395C104.499 3.79523 104.379 3.54888 104.138 3.39492C103.906 3.24095 103.579 3.16397 103.156 3.16397C102.825 3.16397 102.506 3.20631 102.199 3.29099C101.892 3.37567 101.619 3.4719 101.378 3.57968C101.295 3.51809 101.225 3.44496 101.167 3.36028C101.109 3.2679 101.08 3.16782 101.08 3.06005C101.08 2.92918 101.113 2.8214 101.179 2.73672C101.254 2.65204 101.366 2.57891 101.515 2.51732C101.747 2.40955 102.012 2.33256 102.311 2.28637C102.609 2.23249 102.924 2.20554 103.256 2.20554Z" fill="white"/>
<path d="M110.302 3.18707C110.037 3.18707 109.792 3.22941 109.569 3.31409C109.345 3.39107 109.15 3.51039 108.984 3.67206C108.827 3.83372 108.698 4.03387 108.599 4.27252C108.508 4.50346 108.462 4.7729 108.462 5.08083C108.462 5.68899 108.632 6.15473 108.972 6.47806C109.312 6.79369 109.755 6.9515 110.302 6.9515C110.617 6.9515 110.886 6.91301 111.11 6.83603C111.334 6.75905 111.529 6.66667 111.695 6.55889C111.802 6.62048 111.889 6.69361 111.956 6.77829C112.022 6.86297 112.055 6.9669 112.055 7.09007C112.055 7.28253 111.939 7.45189 111.707 7.59815C111.483 7.74442 111.181 7.8445 110.799 7.89838C110.982 8.13703 111.073 8.42186 111.073 8.75289C111.073 9.1301 110.944 9.43033 110.688 9.65358C110.439 9.88453 110.103 10 109.68 10C109.44 10 109.249 9.94996 109.109 9.84988C108.968 9.75751 108.897 9.62279 108.897 9.44573C108.897 9.39954 108.901 9.3495 108.91 9.29561C108.918 9.24172 108.934 9.19169 108.959 9.1455H109.133C109.424 9.1455 109.631 9.08776 109.755 8.97229C109.888 8.85681 109.954 8.699 109.954 8.49885C109.954 8.41416 109.937 8.31794 109.904 8.21016C109.871 8.11009 109.821 8.01001 109.755 7.90993C109.365 7.87144 109.009 7.78676 108.686 7.65589C108.363 7.51732 108.085 7.33256 107.853 7.10162C107.621 6.86297 107.442 6.57814 107.318 6.24711C107.194 5.90839 107.132 5.51963 107.132 5.08083C107.132 4.60354 107.21 4.18399 107.368 3.82217C107.534 3.46035 107.753 3.16012 108.027 2.92148C108.309 2.68283 108.636 2.50577 109.009 2.3903C109.382 2.26713 109.776 2.20554 110.19 2.20554C110.464 2.20554 110.708 2.22864 110.924 2.27483C111.148 2.32102 111.338 2.38645 111.496 2.47113C111.653 2.54811 111.773 2.64049 111.856 2.74827C111.947 2.84834 111.993 2.95612 111.993 3.07159C111.993 3.17937 111.96 3.27945 111.894 3.37182C111.836 3.45651 111.761 3.52194 111.67 3.56813C111.496 3.46805 111.301 3.37952 111.085 3.30254C110.878 3.22556 110.617 3.18707 110.302 3.18707Z" fill="white"/>
<path d="M115.653 6.99769C115.943 6.99769 116.196 6.97075 116.411 6.91686C116.627 6.86297 116.78 6.80523 116.871 6.74365V5.27714L115.516 5.40416C115.135 5.44265 114.849 5.52348 114.658 5.64665C114.468 5.76212 114.372 5.94303 114.372 6.18938C114.372 6.44342 114.476 6.64357 114.683 6.78984C114.89 6.92841 115.214 6.99769 115.653 6.99769ZM115.628 2.20554C116.399 2.20554 117.012 2.36336 117.468 2.67898C117.924 2.98691 118.152 3.47575 118.152 4.1455V6.83603C118.152 7.01309 118.107 7.15166 118.015 7.25173C117.932 7.34411 117.816 7.43264 117.667 7.51732C117.452 7.63279 117.174 7.73287 116.834 7.81755C116.494 7.90223 116.101 7.94457 115.653 7.94457C114.849 7.94457 114.219 7.79831 113.763 7.50577C113.316 7.21324 113.092 6.78214 113.092 6.21247C113.092 5.70439 113.266 5.31563 113.614 5.04619C113.97 4.77675 114.48 4.61124 115.143 4.54965L116.871 4.38799V4.13395C116.871 3.79523 116.751 3.54888 116.511 3.39492C116.279 3.24095 115.951 3.16397 115.529 3.16397C115.197 3.16397 114.878 3.20631 114.571 3.29099C114.265 3.37567 113.991 3.4719 113.751 3.57968C113.668 3.51809 113.597 3.44496 113.539 3.36028C113.481 3.2679 113.452 3.16782 113.452 3.06005C113.452 2.92918 113.486 2.8214 113.552 2.73672C113.626 2.65204 113.738 2.57891 113.888 2.51732C114.12 2.40955 114.385 2.33256 114.683 2.28637C114.982 2.23249 115.297 2.20554 115.628 2.20554ZM114.745 0.0461897C114.919 0.0461897 115.081 0.0654353 115.23 0.103926C115.38 0.142418 115.52 0.188607 115.653 0.242494C115.794 0.288684 115.922 0.331024 116.038 0.369515C116.163 0.408006 116.279 0.427252 116.387 0.427252C116.544 0.427252 116.66 0.384912 116.735 0.300231C116.818 0.207852 116.876 0.107775 116.909 0H116.983C117.166 0 117.323 0.0461895 117.456 0.138568C117.588 0.230947 117.655 0.373364 117.655 0.56582C117.655 0.819862 117.564 1.01617 117.381 1.15473C117.199 1.2933 116.963 1.36259 116.673 1.36259C116.49 1.36259 116.316 1.34334 116.15 1.30485C115.993 1.26636 115.844 1.22402 115.703 1.17783C115.57 1.12394 115.442 1.07775 115.317 1.03926C115.201 1.00077 115.094 0.981525 114.994 0.981525C114.837 0.981525 114.721 1.02771 114.646 1.12009C114.571 1.20477 114.517 1.30485 114.484 1.42032H114.41C114.227 1.42032 114.066 1.37413 113.925 1.28176C113.792 1.18168 113.726 1.03541 113.726 0.842956C113.726 0.588915 113.83 0.39261 114.037 0.254042C114.244 0.115474 114.48 0.0461897 114.745 0.0461897Z" fill="white"/>
<path d="M125.397 5.06928C125.397 5.50808 125.327 5.90454 125.186 6.25866C125.045 6.61278 124.846 6.91301 124.589 7.15935C124.341 7.4057 124.034 7.59815 123.669 7.73672C123.305 7.86759 122.898 7.93303 122.451 7.93303C122.003 7.93303 121.597 7.86759 121.232 7.73672C120.868 7.59815 120.557 7.4057 120.3 7.15935C120.051 6.91301 119.856 6.61278 119.715 6.25866C119.575 5.90454 119.504 5.50808 119.504 5.06928C119.504 4.63049 119.575 4.23403 119.715 3.87991C119.856 3.52579 120.055 3.22556 120.312 2.97921C120.569 2.73287 120.88 2.54427 121.245 2.4134C121.609 2.27483 122.011 2.20554 122.451 2.20554C122.89 2.20554 123.292 2.27483 123.657 2.4134C124.022 2.54427 124.332 2.73672 124.589 2.99076C124.846 3.23711 125.045 3.53734 125.186 3.89145C125.327 4.23788 125.397 4.63049 125.397 5.06928ZM122.451 3.17552C121.953 3.17552 121.56 3.34103 121.27 3.67206C120.98 4.00308 120.834 4.46882 120.834 5.06928C120.834 5.66975 120.975 6.13549 121.257 6.46651C121.539 6.78984 121.937 6.9515 122.451 6.9515C122.965 6.9515 123.363 6.78984 123.644 6.46651C123.926 6.13549 124.067 5.66975 124.067 5.06928C124.067 4.47652 123.922 4.01463 123.632 3.6836C123.35 3.34488 122.956 3.17552 122.451 3.17552Z" fill="white"/>
<path d="M128.987 4.51501C128.987 4.22248 129.091 3.97229 129.298 3.76443C129.513 3.54888 129.795 3.44111 130.143 3.44111C130.492 3.44111 130.769 3.54888 130.976 3.76443C131.192 3.97229 131.3 4.22248 131.3 4.51501C131.3 4.80754 131.192 5.05774 130.976 5.26559C130.769 5.47344 130.492 5.57737 130.143 5.57737C129.795 5.57737 129.513 5.47344 129.298 5.26559C129.091 5.05774 128.987 4.80754 128.987 4.51501Z" fill="white"/>
<path d="M142.36 4.26097C142.36 5.14627 142.165 5.87375 141.775 6.44342C141.386 7.01309 140.868 7.42109 140.221 7.66744C140.486 7.79831 140.727 7.91378 140.942 8.01386C141.166 8.11393 141.377 8.19861 141.576 8.2679C141.775 8.34488 141.966 8.41416 142.148 8.47575C142.331 8.54503 142.517 8.61047 142.708 8.67206C142.716 8.72594 142.72 8.76828 142.72 8.79908C142.72 8.83757 142.72 8.87221 142.72 8.903C142.72 9.12625 142.654 9.29561 142.521 9.41109C142.389 9.53426 142.202 9.59584 141.962 9.59584C141.663 9.59584 141.303 9.49192 140.88 9.28407C140.457 9.07621 139.993 8.79523 139.487 8.44111L138.741 7.93303H138.667C138.136 7.93303 137.643 7.85604 137.187 7.70208C136.74 7.54042 136.35 7.30562 136.019 6.99769C135.695 6.68976 135.438 6.3087 135.248 5.8545C135.065 5.39261 134.974 4.86143 134.974 4.26097C134.974 3.66051 135.07 3.13318 135.26 2.67898C135.451 2.21709 135.712 1.83218 136.043 1.52425C136.375 1.21632 136.765 0.985374 137.212 0.831409C137.668 0.669746 138.153 0.588915 138.667 0.588915C139.189 0.588915 139.674 0.669746 140.122 0.831409C140.569 0.985374 140.959 1.21632 141.29 1.52425C141.622 1.83218 141.883 2.21709 142.074 2.67898C142.264 3.13318 142.36 3.66051 142.36 4.26097ZM141.004 4.26097C141.004 3.39877 140.793 2.74442 140.37 2.29792C139.947 1.84373 139.38 1.61663 138.667 1.61663C137.971 1.61663 137.407 1.84373 136.976 2.29792C136.553 2.74442 136.342 3.39877 136.342 4.26097C136.342 5.12317 136.553 5.78137 136.976 6.23557C137.399 6.68206 137.962 6.90531 138.667 6.90531C139.38 6.90531 139.947 6.68206 140.37 6.23557C140.793 5.78137 141.004 5.12317 141.004 4.26097Z" fill="white"/>
<path d="M143.856 2.37875C143.914 2.36336 143.997 2.34796 144.104 2.33256C144.212 2.30947 144.328 2.29792 144.452 2.29792C144.693 2.29792 144.867 2.34026 144.975 2.42494C145.091 2.50962 145.149 2.65589 145.149 2.86374V5.71594C145.149 6.16243 145.273 6.48191 145.522 6.67437C145.779 6.85912 146.131 6.9515 146.579 6.9515C146.869 6.9515 147.113 6.92456 147.312 6.87067C147.511 6.81678 147.669 6.75905 147.785 6.69746V2.37875C147.851 2.36336 147.934 2.34796 148.033 2.33256C148.141 2.30947 148.257 2.29792 148.381 2.29792C148.622 2.29792 148.8 2.34026 148.916 2.42494C149.032 2.50962 149.09 2.65589 149.09 2.86374V6.7552C149.09 6.92456 149.061 7.06313 149.003 7.1709C148.945 7.27868 148.829 7.3826 148.655 7.48268C148.439 7.59815 148.153 7.70208 147.797 7.79446C147.449 7.88684 147.039 7.93303 146.566 7.93303C145.712 7.93303 145.045 7.75982 144.564 7.4134C144.092 7.05928 143.856 6.50115 143.856 5.73903V2.37875Z" fill="white"/>
<path d="M152.989 6.99769C153.279 6.99769 153.532 6.97075 153.747 6.91686C153.963 6.86297 154.116 6.80523 154.207 6.74365V5.27714L152.852 5.40416C152.471 5.44265 152.185 5.52348 151.994 5.64665C151.804 5.76212 151.708 5.94303 151.708 6.18938C151.708 6.44342 151.812 6.64357 152.019 6.78984C152.226 6.92841 152.55 6.99769 152.989 6.99769ZM152.964 2.20554C153.735 2.20554 154.348 2.36336 154.804 2.67898C155.26 2.98691 155.488 3.47575 155.488 4.1455V6.83603C155.488 7.01309 155.443 7.15166 155.351 7.25173C155.268 7.34411 155.152 7.43264 155.003 7.51732C154.788 7.63279 154.51 7.73287 154.17 7.81755C153.83 7.90223 153.437 7.94457 152.989 7.94457C152.185 7.94457 151.555 7.79831 151.099 7.50577C150.652 7.21324 150.428 6.78214 150.428 6.21247C150.428 5.70439 150.602 5.31563 150.95 5.04619C151.306 4.77675 151.816 4.61124 152.479 4.54965L154.207 4.38799V4.13395C154.207 3.79523 154.087 3.54888 153.847 3.39492C153.615 3.24095 153.287 3.16397 152.865 3.16397C152.533 3.16397 152.214 3.20631 151.907 3.29099C151.601 3.37567 151.327 3.4719 151.087 3.57968C151.004 3.51809 150.933 3.44496 150.875 3.36028C150.817 3.2679 150.788 3.16782 150.788 3.06005C150.788 2.92918 150.822 2.8214 150.888 2.73672C150.962 2.65204 151.074 2.57891 151.224 2.51732C151.456 2.40955 151.721 2.33256 152.019 2.28637C152.318 2.23249 152.633 2.20554 152.964 2.20554Z" fill="white"/>
<path d="M157.947 7.84065C157.706 7.84065 157.528 7.79831 157.412 7.71363C157.296 7.62894 157.238 7.48653 157.238 7.28637V0.277136C157.296 0.26174 157.379 0.242494 157.487 0.219399C157.594 0.196305 157.71 0.184758 157.835 0.184758C158.075 0.184758 158.253 0.227098 158.369 0.311779C158.485 0.396459 158.543 0.538876 158.543 0.73903V7.74827C158.477 7.77136 158.39 7.79061 158.282 7.806C158.183 7.8291 158.071 7.84065 157.947 7.84065Z" fill="white"/>
<path d="M161.699 7.74827C161.641 7.77136 161.559 7.79061 161.451 7.806C161.351 7.8291 161.235 7.84065 161.103 7.84065C160.862 7.84065 160.684 7.79831 160.568 7.71363C160.452 7.62894 160.394 7.48653 160.394 7.28637V2.40185C160.46 2.38645 160.543 2.36721 160.643 2.34411C160.75 2.32102 160.871 2.30947 161.003 2.30947C161.244 2.30947 161.418 2.35181 161.525 2.43649C161.641 2.52117 161.699 2.66744 161.699 2.87529V7.74827ZM160.257 0.704388C160.257 0.504234 160.332 0.338722 160.481 0.207852C160.63 0.0692843 160.821 0 161.053 0C161.285 0 161.472 0.0692843 161.612 0.207852C161.753 0.338722 161.824 0.504234 161.824 0.704388C161.824 0.904542 161.753 1.0739 161.612 1.21247C161.472 1.34334 161.285 1.40878 161.053 1.40878C160.821 1.40878 160.63 1.34334 160.481 1.21247C160.332 1.0739 160.257 0.904542 160.257 0.704388Z" fill="white"/>
<path d="M164.757 2.70208H167.107C167.14 2.74827 167.169 2.8137 167.194 2.89838C167.228 2.97537 167.244 3.06774 167.244 3.17552C167.244 3.49885 167.087 3.66051 166.772 3.66051H164.795V7.74827C164.737 7.77136 164.654 7.79061 164.546 7.806C164.447 7.8291 164.335 7.84065 164.21 7.84065C163.97 7.84065 163.792 7.79831 163.676 7.71363C163.56 7.62894 163.502 7.48653 163.502 7.28637V2.02079C163.502 1.66667 163.556 1.36259 163.663 1.10855C163.779 0.854504 163.941 0.646651 164.148 0.484988C164.355 0.323326 164.604 0.204003 164.894 0.127021C165.193 0.0500385 165.52 0.0115473 165.876 0.0115473C166.39 0.0115473 166.784 0.0731332 167.058 0.196305C167.331 0.319477 167.468 0.492687 167.468 0.715936C167.468 0.823711 167.443 0.919939 167.393 1.00462C167.352 1.0816 167.298 1.15089 167.232 1.21247C167.074 1.15089 166.892 1.097 166.685 1.05081C166.477 1.00462 166.266 0.981525 166.05 0.981525C165.586 0.981525 165.255 1.06621 165.056 1.23557C164.857 1.40493 164.757 1.68206 164.757 2.06698V2.70208ZM169.892 7.74827C169.834 7.77136 169.751 7.79061 169.644 7.806C169.544 7.8291 169.428 7.84065 169.296 7.84065C169.055 7.84065 168.877 7.79831 168.761 7.71363C168.645 7.62894 168.587 7.48653 168.587 7.28637V2.40185C168.653 2.38645 168.736 2.36721 168.836 2.34411C168.943 2.32102 169.063 2.30947 169.196 2.30947C169.436 2.30947 169.611 2.35181 169.718 2.43649C169.834 2.52117 169.892 2.66744 169.892 2.87529V7.74827ZM168.45 0.704388C168.45 0.504234 168.525 0.338722 168.674 0.207852C168.823 0.0692843 169.014 0 169.246 0C169.478 0 169.664 0.0692843 169.805 0.207852C169.946 0.338722 170.017 0.504234 170.017 0.704388C170.017 0.904542 169.946 1.0739 169.805 1.21247C169.664 1.34334 169.478 1.40878 169.246 1.40878C169.014 1.40878 168.823 1.34334 168.674 1.21247C168.525 1.0739 168.45 0.904542 168.45 0.704388Z" fill="white"/>
<path d="M174.532 3.18707C174.267 3.18707 174.022 3.22941 173.799 3.31409C173.575 3.39107 173.38 3.51039 173.214 3.67206C173.057 3.83372 172.928 4.03387 172.829 4.27252C172.738 4.50346 172.692 4.7729 172.692 5.08083C172.692 5.68899 172.862 6.15473 173.202 6.47806C173.542 6.79369 173.985 6.9515 174.532 6.9515C174.847 6.9515 175.117 6.91301 175.34 6.83603C175.564 6.75905 175.759 6.66667 175.925 6.55889C176.032 6.62048 176.119 6.69361 176.186 6.77829C176.252 6.86297 176.285 6.9669 176.285 7.09007C176.285 7.32871 176.115 7.52887 175.775 7.69053C175.444 7.85219 175.005 7.93303 174.458 7.93303C174.002 7.93303 173.583 7.87529 173.202 7.75982C172.829 7.64434 172.506 7.46728 172.232 7.22864C171.958 6.98999 171.743 6.69361 171.585 6.33949C171.436 5.97767 171.362 5.55812 171.362 5.08083C171.362 4.60354 171.44 4.18399 171.598 3.82217C171.764 3.46035 171.983 3.16012 172.257 2.92148C172.539 2.68283 172.866 2.50577 173.239 2.3903C173.612 2.26713 174.006 2.20554 174.42 2.20554C174.694 2.20554 174.938 2.22864 175.154 2.27483C175.378 2.32102 175.568 2.38645 175.726 2.47113C175.883 2.54811 176.003 2.64049 176.086 2.74827C176.177 2.84834 176.223 2.95612 176.223 3.07159C176.223 3.17937 176.19 3.27945 176.124 3.37182C176.066 3.45651 175.991 3.52194 175.9 3.56813C175.726 3.46805 175.531 3.37952 175.315 3.30254C175.108 3.22556 174.847 3.18707 174.532 3.18707Z" fill="white"/>
<path d="M179.883 6.99769C180.173 6.99769 180.426 6.97075 180.642 6.91686C180.857 6.86297 181.01 6.80523 181.102 6.74365V5.27714L179.746 5.40416C179.365 5.44265 179.079 5.52348 178.888 5.64665C178.698 5.76212 178.602 5.94303 178.602 6.18938C178.602 6.44342 178.706 6.64357 178.913 6.78984C179.121 6.92841 179.444 6.99769 179.883 6.99769ZM179.858 2.20554C180.629 2.20554 181.242 2.36336 181.698 2.67898C182.154 2.98691 182.382 3.47575 182.382 4.1455V6.83603C182.382 7.01309 182.337 7.15166 182.245 7.25173C182.163 7.34411 182.046 7.43264 181.897 7.51732C181.682 7.63279 181.404 7.73287 181.064 7.81755C180.724 7.90223 180.331 7.94457 179.883 7.94457C179.079 7.94457 178.449 7.79831 177.993 7.50577C177.546 7.21324 177.322 6.78214 177.322 6.21247C177.322 5.70439 177.496 5.31563 177.844 5.04619C178.2 4.77675 178.71 4.61124 179.373 4.54965L181.102 4.38799V4.13395C181.102 3.79523 180.981 3.54888 180.741 3.39492C180.509 3.24095 180.182 3.16397 179.759 3.16397C179.427 3.16397 179.108 3.20631 178.801 3.29099C178.495 3.37567 178.221 3.4719 177.981 3.57968C177.898 3.51809 177.827 3.44496 177.769 3.36028C177.711 3.2679 177.682 3.16782 177.682 3.06005C177.682 2.92918 177.716 2.8214 177.782 2.73672C177.856 2.65204 177.968 2.57891 178.118 2.51732C178.35 2.40955 178.615 2.33256 178.913 2.28637C179.212 2.23249 179.527 2.20554 179.858 2.20554Z" fill="white"/>
<path d="M186.905 3.18707C186.639 3.18707 186.395 3.22941 186.171 3.31409C185.947 3.39107 185.753 3.51039 185.587 3.67206C185.429 3.83372 185.301 4.03387 185.201 4.27252C185.11 4.50346 185.065 4.7729 185.065 5.08083C185.065 5.68899 185.234 6.15473 185.574 6.47806C185.914 6.79369 186.358 6.9515 186.905 6.9515C187.22 6.9515 187.489 6.91301 187.713 6.83603C187.937 6.75905 188.131 6.66667 188.297 6.55889C188.405 6.62048 188.492 6.69361 188.558 6.77829C188.625 6.86297 188.658 6.9669 188.658 7.09007C188.658 7.28253 188.542 7.45189 188.31 7.59815C188.086 7.74442 187.783 7.8445 187.402 7.89838C187.584 8.13703 187.676 8.42186 187.676 8.75289C187.676 9.1301 187.547 9.43033 187.29 9.65358C187.041 9.88453 186.706 10 186.283 10C186.043 10 185.852 9.94996 185.711 9.84988C185.57 9.75751 185.5 9.62279 185.5 9.44573C185.5 9.39954 185.504 9.3495 185.512 9.29561C185.52 9.24172 185.537 9.19169 185.562 9.1455H185.736C186.026 9.1455 186.233 9.08776 186.358 8.97229C186.49 8.85681 186.557 8.699 186.557 8.49885C186.557 8.41416 186.54 8.31794 186.507 8.21016C186.474 8.11009 186.424 8.01001 186.358 7.90993C185.968 7.87144 185.612 7.78676 185.288 7.65589C184.965 7.51732 184.687 7.33256 184.455 7.10162C184.223 6.86297 184.045 6.57814 183.921 6.24711C183.796 5.90839 183.734 5.51963 183.734 5.08083C183.734 4.60354 183.813 4.18399 183.97 3.82217C184.136 3.46035 184.356 3.16012 184.629 2.92148C184.911 2.68283 185.239 2.50577 185.612 2.3903C185.985 2.26713 186.378 2.20554 186.793 2.20554C187.066 2.20554 187.311 2.22864 187.526 2.27483C187.75 2.32102 187.941 2.38645 188.098 2.47113C188.256 2.54811 188.376 2.64049 188.459 2.74827C188.55 2.84834 188.596 2.95612 188.596 3.07159C188.596 3.17937 188.562 3.27945 188.496 3.37182C188.438 3.45651 188.363 3.52194 188.272 3.56813C188.098 3.46805 187.903 3.37952 187.688 3.30254C187.481 3.22556 187.22 3.18707 186.905 3.18707Z" fill="white"/>
<path d="M192.256 6.99769C192.546 6.99769 192.799 6.97075 193.014 6.91686C193.23 6.86297 193.383 6.80523 193.474 6.74365V5.27714L192.119 5.40416C191.738 5.44265 191.452 5.52348 191.261 5.64665C191.07 5.76212 190.975 5.94303 190.975 6.18938C190.975 6.44342 191.079 6.64357 191.286 6.78984C191.493 6.92841 191.816 6.99769 192.256 6.99769ZM192.231 2.20554C193.002 2.20554 193.615 2.36336 194.071 2.67898C194.527 2.98691 194.755 3.47575 194.755 4.1455V6.83603C194.755 7.01309 194.709 7.15166 194.618 7.25173C194.535 7.34411 194.419 7.43264 194.27 7.51732C194.054 7.63279 193.777 7.73287 193.437 7.81755C193.097 7.90223 192.703 7.94457 192.256 7.94457C191.452 7.94457 190.822 7.79831 190.366 7.50577C189.918 7.21324 189.694 6.78214 189.694 6.21247C189.694 5.70439 189.868 5.31563 190.217 5.04619C190.573 4.77675 191.083 4.61124 191.746 4.54965L193.474 4.38799V4.13395C193.474 3.79523 193.354 3.54888 193.113 3.39492C192.881 3.24095 192.554 3.16397 192.131 3.16397C191.8 3.16397 191.481 3.20631 191.174 3.29099C190.867 3.37567 190.594 3.4719 190.353 3.57968C190.27 3.51809 190.2 3.44496 190.142 3.36028C190.084 3.2679 190.055 3.16782 190.055 3.06005C190.055 2.92918 190.088 2.8214 190.154 2.73672C190.229 2.65204 190.341 2.57891 190.49 2.51732C190.722 2.40955 190.987 2.33256 191.286 2.28637C191.584 2.23249 191.899 2.20554 192.231 2.20554ZM191.348 0.0461897C191.522 0.0461897 191.684 0.0654353 191.833 0.103926C191.982 0.142418 192.123 0.188607 192.256 0.242494C192.396 0.288684 192.525 0.331024 192.641 0.369515C192.765 0.408006 192.881 0.427252 192.989 0.427252C193.147 0.427252 193.263 0.384912 193.337 0.300231C193.42 0.207852 193.478 0.107775 193.511 0H193.586C193.768 0 193.926 0.0461895 194.058 0.138568C194.191 0.230947 194.257 0.373364 194.257 0.56582C194.257 0.819862 194.166 1.01617 193.984 1.15473C193.801 1.2933 193.565 1.36259 193.275 1.36259C193.093 1.36259 192.919 1.34334 192.753 1.30485C192.595 1.26636 192.446 1.22402 192.305 1.17783C192.173 1.12394 192.044 1.07775 191.92 1.03926C191.804 1.00077 191.696 0.981525 191.597 0.981525C191.439 0.981525 191.323 1.02771 191.248 1.12009C191.174 1.20477 191.12 1.30485 191.087 1.42032H191.012C190.83 1.42032 190.668 1.37413 190.527 1.28176C190.395 1.18168 190.328 1.03541 190.328 0.842956C190.328 0.588915 190.432 0.39261 190.639 0.254042C190.846 0.115474 191.083 0.0461897 191.348 0.0461897Z" fill="white"/>
<path d="M202 5.06928C202 5.50808 201.93 5.90454 201.789 6.25866C201.648 6.61278 201.449 6.91301 201.192 7.15935C200.943 7.4057 200.637 7.59815 200.272 7.73672C199.907 7.86759 199.501 7.93303 199.053 7.93303C198.606 7.93303 198.2 7.86759 197.835 7.73672C197.47 7.59815 197.159 7.4057 196.902 7.15935C196.654 6.91301 196.459 6.61278 196.318 6.25866C196.177 5.90454 196.107 5.50808 196.107 5.06928C196.107 4.63049 196.177 4.23403 196.318 3.87991C196.459 3.52579 196.658 3.22556 196.915 2.97921C197.172 2.73287 197.483 2.54427 197.847 2.4134C198.212 2.27483 198.614 2.20554 199.053 2.20554C199.493 2.20554 199.895 2.27483 200.259 2.4134C200.624 2.54427 200.935 2.73672 201.192 2.99076C201.449 3.23711 201.648 3.53734 201.789 3.89145C201.93 4.23788 202 4.63049 202 5.06928ZM199.053 3.17552C198.556 3.17552 198.162 3.34103 197.872 3.67206C197.582 4.00308 197.437 4.46882 197.437 5.06928C197.437 5.66975 197.578 6.13549 197.86 6.46651C198.142 6.78984 198.539 6.9515 199.053 6.9515C199.567 6.9515 199.965 6.78984 200.247 6.46651C200.529 6.13549 200.67 5.66975 200.67 5.06928C200.67 4.47652 200.525 4.01463 200.234 3.6836C199.953 3.34488 199.559 3.17552 199.053 3.17552Z" fill="white"/>
</svg>
