<svg width="203" height="40" viewBox="0 0 203 40" fill="none" xmlns="http://www.w3.org/2000/svg">
<path d="M29.8792 18.44C29.8792 21.6376 29.2397 24.3229 27.9608 26.4959C26.7138 28.669 25.0192 30.3454 22.877 31.525C24.4117 32.208 25.8985 32.7823 27.3373 33.248C28.8081 33.7447 30.1829 34.2103 31.4619 34.6449C31.4938 34.8312 31.5098 34.9864 31.5098 35.1106C31.5098 35.2658 31.5098 35.4055 31.5098 35.5297C31.5098 37.0819 31.0942 38.215 30.2629 38.929C29.4635 39.643 28.3604 40 26.9536 40C25.5788 40 24.092 39.5964 22.4933 38.7893C20.9266 38.0132 19.28 36.8801 17.5534 35.39L15.1554 33.3411H14.9156C12.7734 33.3411 10.791 33.0307 8.96855 32.4098C7.14606 31.7579 5.56338 30.811 4.22049 29.5693C2.90958 28.2965 1.87045 26.7288 1.10308 24.8661C0.367695 23.0035 0 20.8615 0 18.44C0 16.0186 0.383681 13.8921 1.15104 12.0605C1.91841 10.1979 2.97353 8.64571 4.31641 7.40396C5.6593 6.13116 7.226 5.18432 9.01651 4.56345C10.839 3.91153 12.8054 3.58557 14.9156 3.58557C17.0259 3.58557 18.9922 3.91153 20.8147 4.56345C22.6372 5.18432 24.2199 6.13116 25.5628 7.40396C26.9057 8.64571 27.9608 10.1979 28.7281 12.0605C29.4955 13.8921 29.8792 16.0186 29.8792 18.44ZM22.1096 18.44C22.1096 15.4909 21.4542 13.2712 20.1433 11.7811C18.8643 10.26 17.1218 9.49942 14.9156 9.49942C12.7414 9.49942 10.9989 10.2445 9.68795 11.7346C8.37704 13.2247 7.72159 15.4598 7.72159 18.44C7.72159 21.4513 8.36105 23.702 9.63999 25.1921C10.9509 26.6822 12.7094 27.4272 14.9156 27.4272C17.1218 27.4272 18.8643 26.6822 20.1433 25.1921C21.4542 23.702 22.1096 21.4513 22.1096 18.44Z" fill="white"/>
<path d="M56.744 27.986C56.744 29.4451 56.0885 30.5627 54.7776 31.3388C53.7545 31.9596 52.4915 32.4408 50.9888 32.7823C49.486 33.1548 47.8234 33.3411 46.0009 33.3411C44.2743 33.3411 42.7076 33.1548 41.3008 32.7823C39.894 32.4408 38.679 31.882 37.6558 31.1059C36.6647 30.3298 35.8813 29.352 35.3058 28.1723C34.7622 26.9926 34.4905 25.5646 34.4905 23.8882V10.3376C34.8422 10.2445 35.3058 10.1513 35.8813 10.0582C36.4568 9.96508 37.0963 9.91851 37.7997 9.91851C39.2385 9.91851 40.2617 10.1513 40.8692 10.617C41.5086 11.0827 41.8284 11.9674 41.8284 13.2712V23.8417C41.8284 25.2386 42.1961 26.2476 42.9315 26.8685C43.6669 27.4583 44.706 27.7532 46.0489 27.7532C46.8802 27.7532 47.5676 27.6911 48.1112 27.5669C48.6867 27.4117 49.1183 27.2565 49.4061 27.1013V10.3376C49.7258 10.2445 50.1734 10.1513 50.749 10.0582C51.3245 9.96508 51.964 9.91851 52.6674 9.91851C54.1062 9.91851 55.1453 10.1513 55.7848 10.617C56.4243 11.0827 56.744 11.9674 56.744 13.2712V27.986Z" fill="white"/>
<path d="M71.7158 28.1257C72.4192 28.1257 73.1066 28.0636 73.7781 27.9395C74.4815 27.7842 75.0091 27.598 75.3608 27.3807V23.0966L71.428 23.4226C70.4049 23.5157 69.5736 23.7485 68.9341 24.1211C68.3266 24.4626 68.0229 24.9903 68.0229 25.7043C68.0229 26.4494 68.3106 27.0392 68.8862 27.4738C69.4617 27.9084 70.4049 28.1257 71.7158 28.1257ZM71.428 9.54598C73.0907 9.54598 74.5934 9.71673 75.9363 10.0582C77.3111 10.3686 78.4782 10.8653 79.4374 11.5483C80.3966 12.2313 81.132 13.1005 81.6436 14.156C82.1871 15.2115 82.4589 16.4532 82.4589 17.8813V28.4051C82.4589 29.2123 82.2351 29.8642 81.7874 30.3609C81.3718 30.8265 80.8602 31.2301 80.2527 31.5716C79.2615 32.1614 78.0465 32.6116 76.6077 32.922C75.1689 33.2324 73.5383 33.3877 71.7158 33.3877C68.4225 33.3877 65.8007 32.7823 63.8503 31.5716C61.9 30.3298 60.9248 28.4517 60.9248 25.9371C60.9248 23.7951 61.5802 22.1653 62.8911 21.0477C64.202 19.9302 66.2164 19.2317 68.9341 18.9523L75.3128 18.3003V17.7881C75.3128 16.7947 74.8972 16.0652 74.0658 15.5995C73.2345 15.1339 72.0355 14.901 70.4688 14.901C69.2538 14.901 68.0548 15.0407 66.8718 15.3201C65.7208 15.5995 64.6816 15.9255 63.7544 16.298C63.3707 16.0497 63.035 15.6771 62.7472 15.1804C62.4915 14.6527 62.3636 14.0939 62.3636 13.5041C62.3636 12.1381 63.099 11.1603 64.5697 10.5704C65.497 10.2289 66.5681 9.9806 67.7831 9.82538C69.03 9.63912 70.245 9.54598 71.428 9.54598Z" fill="white"/>
<path d="M92.1064 32.9686C90.6676 32.9686 89.6284 32.7513 88.9889 32.3167C88.3815 31.851 88.0777 30.9662 88.0777 29.6624V2.32829C88.3974 2.23516 88.8451 2.14203 89.4206 2.0489C90.0281 1.95576 90.6835 1.9092 91.387 1.9092C92.7938 1.9092 93.8169 2.14203 94.4564 2.60768C95.0959 3.07334 95.4156 3.95809 95.4156 5.26193V32.596C95.0639 32.6892 94.6003 32.7668 94.0248 32.8289C93.4492 32.922 92.8098 32.9686 92.1064 32.9686Z" fill="white"/>
<path d="M108.621 32.596C108.301 32.6892 107.854 32.7668 107.278 32.8289C106.703 32.922 106.063 32.9686 105.36 32.9686C103.921 32.9686 102.882 32.7513 102.242 32.3167C101.635 31.851 101.331 30.9662 101.331 29.6624V10.5239C101.651 10.4307 102.099 10.3376 102.674 10.2445C103.25 10.1513 103.889 10.1048 104.592 10.1048C106.031 10.1048 107.054 10.3376 107.662 10.8033C108.301 11.2689 108.621 12.1537 108.621 13.4575V32.596ZM100.9 3.81839C100.9 2.7629 101.267 1.86263 102.003 1.11758C102.77 0.372526 103.761 0 104.976 0C106.191 0 107.166 0.372526 107.902 1.11758C108.669 1.86263 109.053 2.7629 109.053 3.81839C109.053 4.90493 108.669 5.82072 107.902 6.56578C107.166 7.31083 106.191 7.68335 104.976 7.68335C103.761 7.68335 102.77 7.31083 102.003 6.56578C101.267 5.82072 100.9 4.90493 100.9 3.81839Z" fill="white"/>
<path d="M141.973 18.4866C141.973 22.274 141.126 25.3473 139.431 27.7066C137.769 30.066 135.595 31.6803 132.909 32.5495C134.092 33.1704 135.131 33.6981 136.026 34.1327C136.953 34.5984 137.801 35.0019 138.568 35.3434C139.367 35.6849 140.119 35.9953 140.822 36.2747C141.558 36.5541 142.325 36.8335 143.124 37.1129C143.188 37.3302 143.22 37.501 143.22 37.6251C143.22 37.7804 143.22 37.9201 143.22 38.0442C143.22 38.6341 143.028 39.0997 142.645 39.4412C142.293 39.8137 141.781 40 141.11 40C140.087 40 138.744 39.5654 137.081 38.6962C135.451 37.858 133.58 36.7404 131.47 35.3434L128.305 33.248H128.065C126.083 33.248 124.244 32.9375 122.549 32.3167C120.855 31.6647 119.384 30.7334 118.137 29.5227C116.89 28.2809 115.915 26.7443 115.212 24.9127C114.508 23.0501 114.156 20.908 114.156 18.4866C114.156 16.0652 114.508 13.9387 115.212 12.1071C115.947 10.2755 116.938 8.73884 118.185 7.49709C119.432 6.25534 120.903 5.32402 122.597 4.70314C124.292 4.05122 126.114 3.72526 128.065 3.72526C130.015 3.72526 131.838 4.05122 133.532 4.70314C135.227 5.32402 136.698 6.25534 137.945 7.49709C139.192 8.73884 140.167 10.2755 140.87 12.1071C141.606 13.9387 141.973 16.0652 141.973 18.4866ZM137.993 18.4866C137.993 14.7614 137.081 11.9053 135.259 9.91851C133.468 7.9317 131.07 6.9383 128.065 6.9383C126.562 6.9383 125.203 7.20217 123.988 7.72992C122.773 8.22662 121.734 8.97167 120.871 9.96508C120.008 10.9274 119.336 12.1226 118.857 13.5506C118.409 14.9787 118.185 16.624 118.185 18.4866C118.185 22.2119 119.08 25.0679 120.871 27.0547C122.661 29.0415 125.059 30.0349 128.065 30.0349C131.102 30.0349 133.516 29.0415 135.307 27.0547C137.097 25.0679 137.993 22.2119 137.993 18.4866Z" fill="white"/>
<path d="M148.277 11.2224C148.437 11.1603 148.676 11.0982 148.996 11.0361C149.348 10.943 149.715 10.8964 150.099 10.8964C151.442 10.8964 152.114 11.4707 152.114 12.6193V24.5867C152.114 26.6046 152.657 28.0481 153.744 28.9173C154.831 29.7555 156.334 30.1746 158.252 30.1746C159.531 30.1746 160.618 30.0504 161.514 29.8021C162.409 29.5227 163.112 29.2433 163.624 28.9639V11.2224C163.784 11.1603 164.024 11.0982 164.343 11.0361C164.695 10.943 165.047 10.8964 165.398 10.8964C166.773 10.8964 167.461 11.4707 167.461 12.6193V28.8242C167.461 29.4761 167.365 30.0039 167.173 30.4075C167.013 30.78 166.597 31.1525 165.926 31.525C165.191 31.9286 164.167 32.3167 162.857 32.6892C161.578 33.0617 160.027 33.248 158.204 33.248C155.007 33.248 152.545 32.565 150.819 31.1991C149.124 29.8331 148.277 27.6911 148.277 24.773V11.2224Z" fill="white"/>
<path d="M178.722 32.5495C178.562 32.6116 178.322 32.6737 178.003 32.7357C177.683 32.8289 177.331 32.8754 176.948 32.8754C175.573 32.8754 174.885 32.3166 174.885 31.1991V11.2224C175.045 11.1603 175.285 11.0982 175.605 11.0361C175.956 10.943 176.324 10.8964 176.708 10.8964C178.051 10.8964 178.722 11.4707 178.722 12.6193V32.5495ZM174.31 4.33062C174.31 3.6787 174.534 3.13543 174.981 2.70082C175.461 2.23516 176.068 2.00233 176.804 2.00233C177.539 2.00233 178.131 2.23516 178.578 2.70082C179.026 3.13543 179.25 3.6787 179.25 4.33062C179.25 4.98254 179.026 5.54133 178.578 6.00699C178.131 6.4416 177.539 6.65891 176.804 6.65891C176.068 6.65891 175.461 6.4416 174.981 6.00699C174.534 5.54133 174.31 4.98254 174.31 4.33062Z" fill="white"/>
<path d="M185.542 32.6426C185.031 32.239 184.775 31.6958 184.775 31.0128C184.775 30.6403 184.855 30.2988 185.015 29.9884C185.175 29.6469 185.383 29.3209 185.638 29.0105L197.82 14.2026H185.495C185.399 14.0473 185.303 13.8456 185.207 13.5972C185.111 13.3178 185.063 13.0074 185.063 12.6659C185.063 11.6414 185.542 11.1292 186.502 11.1292H201.849C202.393 11.5638 202.664 12.1226 202.664 12.8056C202.664 13.4265 202.361 14.0784 201.753 14.7614L189.571 29.6158H202.568C202.664 29.7711 202.76 29.9728 202.856 30.2212C202.952 30.4695 203 30.7645 203 31.1059C203 32.1304 202.504 32.6426 201.513 32.6426H185.542Z" fill="white"/>
</svg>
