<svg width="28" height="28" viewBox="0 0 28 28" fill="none" xmlns="http://www.w3.org/2000/svg">
<path fill-rule="evenodd" clip-rule="evenodd" d="M8.59279 2.58802L6.88452 0.540283L0.741455 5.66508L2.44959 7.71282L8.59279 2.58802ZM21.1155 0.541083L27.2587 5.66588L25.5504 7.71362L19.4072 2.58882L21.1155 0.541083ZM14.6668 8.79308H12.6668V16.7931L19.0001 20.5931L20.0001 18.9531L14.6668 15.7931V8.79308ZM14.0001 3.45975C7.37346 3.45975 2.00012 8.83308 2.00012 15.4597C2.00012 22.0864 7.37346 27.4597 14.0001 27.4597C20.6268 27.4597 26.0001 22.0864 26.0001 15.4597C26.0001 8.83308 20.6268 3.45975 14.0001 3.45975ZM4.66679 15.4598C4.66679 20.6064 8.85346 24.7931 14.0001 24.7931C19.1468 24.7931 23.3335 20.6064 23.3335 15.4598C23.3335 10.3131 19.1468 6.12642 14.0001 6.12642C8.85346 6.12642 4.66679 10.3131 4.66679 15.4598Z" fill="black" fill-opacity="0.87"/>
</svg>
