<svg width="72" height="72" viewBox="0 0 72 72" fill="none" xmlns="http://www.w3.org/2000/svg">
<path fill-rule="evenodd" clip-rule="evenodd" d="M27 3H45V9H27V3ZM33 42V24H39V42H33ZM57.09 22.17L61.35 17.91C60.06 16.38 58.65 14.94 57.12 13.68L52.86 17.94C48.21 14.22 42.36 12 36 12C21.09 12 9 24.09 9 39C9 53.91 21.06 66 36 66C50.94 66 63 53.91 63 39C63 32.64 60.78 26.79 57.09 22.17ZM15 39C15 50.61 24.39 60 36 60C47.61 60 57 50.61 57 39C57 27.39 47.61 18 36 18C24.39 18 15 27.39 15 39Z" fill="white"/>
</svg>
